# xmcd CD database file
#
# Track frame offsets:
#	150
#	20001
#	36697
#	58092
#	74851
#	92671
#	111007
#	131055
#	145727
#	162318
#	174724
#	194112
#
# Disc length: 2910 seconds
#
# Revision: 0
# Processed by: cddbd v1.5.1PL2 Copyright (c) Steve Scherf et al.
# Submitted via: CDex 1.51
#
DISCID=c10b5c0c
DTITLE=Henning Kvitnes - Ut av veggen
DYEAR=2006
DGENRE=Country Rock
TTITLE0=Guttær
TTITLE1=Fiskerens ring
TTITLE2=En god dag
TTITLE3=Ut av veggen
TTITLE4=Øst for alle elver
TTITLE5=Bla bla babylon
TTITLE6=Et kyss til
TTITLE7=Tia skal gå
TTITLE8=Dypere
TTITLE9=Denne veien
TTITLE10=Strender
TTITLE11=Hvis Jesus sku' trenge en roadie
EXTD=YEAR: 2006
EXTT0=
EXTT1=
EXTT2=
EXTT3=
EXTT4=
EXTT5=
EXTT6=
EXTT7=
EXTT8=
EXTT9=
EXTT10=
EXTT11=
PLAYORDER=
